<svg width="30" height="30" viewBox="0 0 30 30" fill="none" xmlns="http://www.w3.org/2000/svg">
<g filter="url(#filter0_d_29_2129)">
<path fill-rule="evenodd" clip-rule="evenodd" d="M10.0024 10.4994C10.0014 9.94787 10.4439 9.50136 10.9994 9.50236L13.391 9.50636C14.2255 9.44236 15.3806 9.86837 15.9796 10.4674L19.5527 14.0405C20.1478 14.6355 20.1498 15.5986 19.5547 16.1931L16.6931 19.0547C16.0991 19.6482 15.1396 19.6512 14.5406 19.0527L10.9674 15.4795C10.3724 14.8845 9.9419 13.7255 10.0064 12.8915L10.0024 10.5004V10.4994ZM11.675 14.7715L15.2481 18.3446C15.4551 18.5516 15.7821 18.5516 15.9866 18.3466L18.8482 15.485C19.0517 15.2815 19.0512 14.952 18.8462 14.747L15.2731 11.1739C14.8816 10.7824 14.0135 10.4609 13.5005 10.4994L11.501 10.4984C11.2249 10.4984 11.0009 10.7199 11.0009 10.9984L11.0004 13C10.9619 13.51 11.2859 14.383 11.675 14.7715ZM13.0005 13.5C13.553 13.5 14.0005 13.0525 14.0005 12.5C14.0005 11.9474 13.553 11.4999 13.0005 11.4999C12.448 11.4999 12.0005 11.9474 12.0005 12.5C12.0005 13.0525 12.448 13.5 13.0005 13.5Z" fill="#756EF3"/>
</g>
</svg>
